<svg viewBox="0 0 16 16" xmlns="http://www.w3.org/2000/svg">
    <path d="M13.0645161,4.62580645 L11.5589862,0 L6.69470046,0 L8.19815668,4.62580645 L13.0645161,4.62580645 Z M6.69470046,0 L1.83110599,0 L0.328341014,4.62580645 L5.19193548,4.62580645 L6.69470046,0 Z M0.328341014,4.62580645 L0.328341014,4.62580645 C-0.567895065,7.38409968 0.41384959,10.405797 2.76013825,12.1105991 L4.26290323,7.48479263 L0.328341014,4.62580645 Z M13.0617512,4.62580645 L13.0617512,4.62580645 L9.12442396,7.48479263 L10.6271889,12.1105991 L10.6271889,12.1105991 C12.9755158,10.4072782 13.9595852,7.38529781 13.0645161,4.62580645 L13.0617512,4.62580645 Z M2.76013825,12.1105991 L2.76013825,12.1105991 L6.69539171,14.9695853 L10.6299539,12.1105991 L6.69470046,9.2516129 L2.76013825,12.1105991 Z" id="NEW"></path>
</svg>