<svg xmlns="http://www.w3.org/2000/svg" viewBox="0 0 16 16">
  <defs>
    <linearGradient id="bitbucket-color-gradient" x1="16.42" y1="9.04" x2="8.46" y2="2.83" gradientTransform="matrix(1, 0, 0, -1, 0, 16)" gradientUnits="userSpaceOnUse">
      <stop offset="0.18" stop-color="#0052cc" />
      <stop offset="1" stop-color="#2684ff" />
    </linearGradient>
  </defs>
  <path class="icon-bitbucket" fill="#2684ff" d="M.52.81a.51.51,0,0,0-.52.5A.28.28,0,0,0,0,1.4L2.18,14.61a.69.69,0,0,0,.68.58H13.3a.51.51,0,0,0,.52-.43L16,1.4a.5.5,0,0,0-.42-.58H.52Zm9.16,9.54H6.35l-.9-4.71h5Z" />
  <path class="icon-bitbucket-gradient" fill="url(#bitbucket-color-gradient)" d="M15.3,5.64H10.49l-.81,4.71H6.35L2.42,15a.66.66,0,0,0,.44.17H13.31a.51.51,0,0,0,.51-.43Z"/>
</svg>
