<svg icon="icon-bitbucket" xmlns="http://www.w3.org/2000/svg" viewBox="0 0 16 16">
  <path d="M8,0H8C4.18,0,1.07,1,1.07,2.3c0,.34.83,5.15,1.16,7.05.15.86,2.36,2.11,5.77,2.11H8c3.41,0,5.62-1.25,5.77-2.11.33-1.91,1.16-6.72,1.16-7.05C14.93,1,11.82,0,8,0ZM8,9.92a2.2,2.2,0,1,1,2.2-2.2A2.2,2.2,0,0,1,8,9.92ZM8,3c-2.45,0-4.44-.43-4.44-1s2-.94,4.44-.94,4.44.43,4.44,1S10.45,3,8,3Zm5,8.25a.32.32,0,0,0-.19.07A8.13,8.13,0,0,1,8,12.69a8.13,8.13,0,0,1-4.79-1.35A.32.32,0,0,0,3,11.26a.24.24,0,0,0-.25.27.32.32,0,0,0,0,.06C3,13,3.24,14,3.27,14.17,3.5,15.21,5.54,16,8,16H8c2.46,0,4.5-.79,4.73-1.83,0-.15.23-1.16.49-2.58a.32.32,0,0,0,0-.06A.24.24,0,0,0,13,11.26ZM8,6.61a1.1,1.1,0,1,1-1.1,1.1A1.1,1.1,0,0,1,8,6.61Z"/>
</svg>
