<svg xmlns="http://www.w3.org/2000/svg" viewBox="0 0 16 16">
  <path fill="#99d9e8" d="M8,1.33C3.69,1.33.32,6.81,0,11.44c1.35,2.35,4.61,3.23,8,3.23s6.65-.88,8-3.23C15.68,6.81,12.31,1.33,8,1.33Z"/>
  <path fill="#70bf54" d="M14.75,11.16c0,1.38-3.1,2.68-6.93,2.78C4,13.84.87,12.53.88,11.16S3.87,7,7.82,6.95,14.75,9.81,14.75,11.16Z"/>
  <ellipse fill="#695114" opacity="0.64" cx="7.82" cy="10.81" rx="2.96" ry="1.39"/>
  <path fill="#ff7f00" d="M7.38,4.73c.25,1-.79,1.43-1.34,2.17-.94,1.18-1.59,3.6,0,4.58l.19.1a4.11,4.11,0,0,0,3.2-.14,1.45,1.45,0,0,0,.88-.94c.12-.65-.67-.89-.63-1.54A1.53,1.53,0,0,1,10,8.21c.22-.37.32-1.12-.29-1.18,0,.26-.4,1.05-.78.73-.23-.19,0-.61.08-.83A2.55,2.55,0,0,0,7.23,3.83"/>
  <path fill="#ff0" d="M8.74,9.93a1.48,1.48,0,0,1,0,.53,1.18,1.18,0,0,1-.18.47,1,1,0,0,1-.17.2l-.1.07-.12,0-.22,0H7.66a1.07,1.07,0,0,1-.46-.15,1.67,1.67,0,0,1-.41-.3,1.57,1.57,0,0,1-.27-1.89c.28-.55.84-.95,1.13-1.49a1,1,0,0,0,.11-.31.75.75,0,0,0,0-.39l.12.06a.27.27,0,0,1,.08.1.46.46,0,0,1,0,.26.87.87,0,0,1-.08.27c-.06.11-.07.23-.12.35A1.88,1.88,0,0,1,7.6,8a.92.92,0,0,0-.15.31,2.33,2.33,0,0,0-.07.46,1.2,1.2,0,0,0,.22.57.43.43,0,0,0,.54.23,1.4,1.4,0,0,0,.7-.74A1.17,1.17,0,0,0,8.74,9.93Z"/>
  <path fill="#fff" opacity="0.75" d="M7.61,10.83a.51.51,0,0,1-.46-.35,1.42,1.42,0,0,1-.07-.7c0-.07.06-.14.08-.22s0-.21.08-.27,0,.21,0,.22,0,.1,0,.13.06,0,.09,0,.14.29.2.41c.18.34.46.46.77.15a.93.93,0,0,1-.5.47"/>
  <path fill="#695114" opacity="0.15" d="M14,9.74c-.79-.26-1.3,2-2.64,2.85a15.94,15.94,0,0,1-3.83,1.29,13,13,0,0,0,5.5-1c1.17-.48,2.54-1.54,1-3.11"/>
  <path fill="#695114" opacity="0.15" d="M2,12.42C.68,11.58,3.36,8.8,3.84,8.05A6.34,6.34,0,0,0,1.42,10c-.66,1-.88,1.72.43,2.51"/>
</svg>
