<svg xmlns="http://www.w3.org/2000/svg" viewBox="0 0 180 30" class="icon-codeship">
  <circle class="icon-codeship-outline" r="14" cx="15" cy="15" />
  <path class="icon-codeship-waves" d="M12.8,6.65V4.23c0-.35,1.37-.74,2.3-.74s2.35.39,2.35.74V6.64a13.16,13.16,0,0,0-2.32-.25A12.73,12.73,0,0,0,12.8,6.65Zm-5.32,14c1,.11,4.84,1.74,8.54-.38l-.91-.12a13.48,13.48,0,0,1-3.54-2S8,14.45,3.74,18.3a11.87,11.87,0,0,0,.51,1.44C5.24,19.33,6.4,20.55,7.47,20.66Z"/>
  <path class="icon-codeship-ship" d="M4.25,19.75l0,0h0Zm15.83-8.58V8.65c0-.35-3-1.15-5-1.15s-4.86.8-4.86,1.15v2.49a17.94,17.94,0,0,1,4.82-2.37A17.54,17.54,0,0,1,20.08,11.17Zm1.21,5c-.74.14-1.61,1.21-2.74,2.29a11.58,11.58,0,0,1,2.71-4.91c-.39-.36-.79-.68-1.19-1h0A16,16,0,0,0,15.14,10h0a12.33,12.33,0,0,0-2.12.85A16.51,16.51,0,0,0,9,13.5H9A10.81,10.81,0,0,1,11.54,18l0,.1.37.33a7.38,7.38,0,0,0,3.14,1.69v0l-.47-3.79-.12-2.55.64-2.92.59,2.92-.14,2.56-.42,3.8v0l.86.1a6.86,6.86,0,0,1-5.82-.09,8.5,8.5,0,0,0-2.81-1,6.57,6.57,0,0,0-3.15.51h0l0,0a12,12,0,0,0,11.22,7.1,12,12,0,0,0,10.68-7.54q.14-.36.26-.72C24.81,17.43,22.27,15.94,21.29,16.13Zm0,0Z"/>
  <path class="icon-codeship-text" d="M49.21,22.21a7.21,7.21,0,0,1,0-14.42,6.9,6.9,0,0,1,5.11,1.82,1,1,0,0,1,0,1.44,1,1,0,0,1-1.48,0,4.83,4.83,0,0,0-3.63-1.24,5.15,5.15,0,0,0,0,10.3A4.9,4.9,0,0,0,52.88,19a1,1,0,0,1,1.44,1.44A6.91,6.91,0,0,1,49.21,22.21ZM66.81,7.79A7.21,7.21,0,1,1,59.59,15,7.19,7.19,0,0,1,66.81,7.79Zm0,12.36A5.15,5.15,0,1,0,61.65,15,5.15,5.15,0,0,0,66.81,20.15ZM86.17,8a7,7,0,1,1,0,14H81.64a1,1,0,0,1-1-1V9a1,1,0,0,1,1-1Zm-3.5,2V20h3.5a5,5,0,1,0,0-10.05ZM110.9,20a1,1,0,1,1,0,2H101a1,1,0,0,1-1-1V9a1,1,0,0,1,1-1h9.89a1,1,0,1,1,0,2H102v3.87h6.8a1,1,0,1,1,0,2H102V20Zm36.55-4.41H138v5.44a1,1,0,1,1-2.06,0V8.94a1,1,0,0,1,2.06,0v4.7h9.48V8.94a1,1,0,0,1,2.06,0V21.06a1,1,0,1,1-2.06,0Zm12.36,5.44a1,1,0,1,1-2.06,0V8.94a1,1,0,0,1,2.06,0ZM175.51,8a4.49,4.49,0,0,1,0,9h-5.4V21.1a1,1,0,0,1-1,1,1,1,0,0,1-1-1V9a1,1,0,0,1,1-1Zm-5.4,2v5h5.4a2.51,2.51,0,0,0,0-5Zm-46.75,12.6-.51,0a6,6,0,0,1-3.69-1.46.83.83,0,0,1-.24-.66.78.78,0,0,1,.37-.55,1.24,1.24,0,0,1,.67-.19,1.09,1.09,0,0,1,.8.31,3.81,3.81,0,0,0,2.25.85h.34c1.78,0,3-.88,3.13-2.23s-1.42-2.19-3.22-3c-2.06-.92-4.4-2-4.17-4.51.19-2.12,2-3.38,4.78-3.38l.57,0a5.52,5.52,0,0,1,3.43,1.35.74.74,0,0,1-.08,1.2,1.38,1.38,0,0,1-.72.2,1.06,1.06,0,0,1-.79-.31,3.39,3.39,0,0,0-2-.77H124c-1.64,0-2.66.64-2.74,1.7-.15,1.59,1.42,2.29,3.24,3.11,2,.92,4.37,2,4.13,4.53C128.42,21,126.31,22.57,123.36,22.57Z"/>
</svg>
