<svg xmlns="http://www.w3.org/2000/svg" viewBox="0 0 16 16">
  <path fill="#e06158" d="M13,10.2l0,0c-.48.18-1.06-.06-1.63-.62V5.37a1,1,0,0,0-.65-.94c-2-.75-3.84-.69-5.09.18A4,4,0,0,0,4,8a3.89,3.89,0,0,0,2.17,3.66A3.82,3.82,0,0,0,7.8,12a4.79,4.79,0,0,0,2.43-.71,3.62,3.62,0,0,0,2.77.94ZM9.33,9.52A2.38,2.38,0,0,1,7,9.85,1.92,1.92,0,0,1,6,8a2.05,2.05,0,0,1,.75-1.75A2.28,2.28,0,0,1,8,5.91a5,5,0,0,1,1.29.19Z"/>
  <path fill="#ff9f49" d="M12.22,3.76m1.44-1.41-1.43,1.4A6,6,0,0,1,14,8a2.3,2.3,0,0,1-1,2.2v2.05a2.93,2.93,0,0,0,.65-.16C15.1,11.56,16,10,16,8A8,8,0,0,0,13.65,2.35Z"/>
  <path fill="#ffca49" d="M3.76,3.76,2.35,2.35a8,8,0,0,1,11.31,0l-1.43,1.4a6,6,0,0,0-8.47,0Z"/>
  <path fill="#3acc7c" d="M2,8A6,6,0,0,1,3.76,3.76L2.35,2.35a8,8,0,0,0,0,11.31l1.41-1.41A6,6,0,0,1,2,8Z"/>
  <path fill="#1ca1e3" d="M2.35,13.65a8,8,0,0,0,9.41,1.41,1,1,0,0,0-.94-1.77,6,6,0,0,1-7.05-1.06Z"/>
</svg>
