<svg xmlns="http://www.w3.org/2000/svg" viewBox="0 0 16 16">
  <path fill="#49495f" d="M9.6,4a1,1,0,0,1,1.05-.87,1.79,1.79,0,0,1,1.15.32.14.14,0,0,0,.19,0l1.16-1.36a.14.14,0,0,0,0-.2A5.43,5.43,0,0,0,10,.46,3.41,3.41,0,0,0,6.6,3.86h0v12a8,8,0,0,0,2.89,0,.14.14,0,0,0,.11-.14v-8a.14.14,0,0,1,.14-.14h2.12A.14.14,0,0,0,12,7.46V5.14A.14.14,0,0,0,11.86,5H9.74a.14.14,0,0,1-.14-.14Z"/>
  <path fill="#1ba3fb" d="M.52,10.84a42.81,42.81,0,0,0,5.88.56v4.44A8,8,0,0,1,.52,10.84Z"/>
  <path fill="#77fcff" d="M.16,9.6A15.71,15.71,0,0,1,6.4,8v3.4a42.81,42.81,0,0,1-5.88-.56A7.94,7.94,0,0,1,.16,9.6Z"/>
  <path fill="#dff974" d="M0,8A8,8,0,0,0,.16,9.6,15.71,15.71,0,0,1,6.4,8V5A28.29,28.29,0,0,1,1.07,4,8,8,0,0,0,0,8Z"/>
  <path fill="#fa4588" d="M6.4,3.84A3.56,3.56,0,0,1,10,.27h.12A8,8,0,0,0,1.07,4,28.27,28.27,0,0,0,6.4,5Z"/>
</svg>
