<svg class="icon-github" xmlns="http://www.w3.org/2000/svg" viewBox="0 0 16 16">
  <path d="M8,0A8.1,8.1,0,0,0,0,8.2,8.19,8.19,0,0,0,5.47,16c.4.08.55-.18.55-.4s0-.71,0-1.4c-2.23.5-2.69-1.1-2.69-1.1a2.16,2.16,0,0,0-.89-1.2c-.73-.51.05-.5.05-.5a1.69,1.69,0,0,1,1.23.85A1.68,1.68,0,0,0,6,12.92a1.77,1.77,0,0,1,.51-1.1c-1.78-.21-3.64-.91-3.64-4.05a3.22,3.22,0,0,1,.82-2.2A3,3,0,0,1,3.8,3.4s.67-.22,2.2.84a7.4,7.4,0,0,1,4,0c1.53-1.06,2.2-.84,2.2-.84a3,3,0,0,1,.08,2.17,3.21,3.21,0,0,1,.82,2.2c0,3.15-1.87,3.84-3.65,4A2,2,0,0,1,10,13.34c0,1.1,0,2,0,2.25s.14.47.55.39A8.19,8.19,0,0,0,16,8.2,8.1,8.1,0,0,0,8,0Z" />
</svg>
