<svg xmlns="http://www.w3.org/2000/svg" viewBox="0 0 16 16">
  <path class="icon-gitlab-head" fill="#fc6d26" d="M16,9.06l-.9-2.76L13.3.84a.31.31,0,0,0-.58,0L11,6.3H5.05L3.28.84a.31.31,0,0,0-.58,0L.93,6.3,0,9.06a.62.62,0,0,0,.22.68L8,15.37l7.75-5.63A.62.62,0,0,0,16,9.06"/>
  <path class="icon-gitlab-scruff" fill="#fca326" d="M.93,6.3h0L0,9.06a.62.62,0,0,0,.22.68L8,15.37.93,6.3Zm14.14,0h0L16,9.06a.62.62,0,0,1-.22.68L8,15.37,15.07,6.3Z"/>
  <path class="icon-gitlab-ears-nose" fill="#e24329" d="M8,15.37H8L11,6.3H5.05l3,9.07ZM.93,6.3H5.05L3.28.84a.31.31,0,0,0-.58,0L.93,6.3Zm14.14,0H11L12.72.84a.31.31,0,0,1,.58,0L15.07,6.3Z"/>
</svg>
