<svg xmlns="http://www.w3.org/2000/svg" viewBox="0 0 16 16">
  <path id="icon-app-engine-hexagon" fill="#4285f4" d="M15.81,7.26,12.52,1.55A1.44,1.44,0,0,0,11.29.81H4.71a1.44,1.44,0,0,0-1.23.74L.19,7.25a1.46,1.46,0,0,0,0,1.43l3.29,5.75a1.47,1.47,0,0,0,1.23.76h6.58a1.48,1.48,0,0,0,1.23-.76l3.29-5.72A1.5,1.5,0,0,0,15.81,7.26Z"/>
  <path id="icon-app-engine-shadow" fill="#4c7adc" d="M12.66,7.75l-.09,0L8.21,3.36l-.9,1.31.75.75-1.9.69L5.41,8l-.74-.73L3.36,8.44l6.75,6.75h1.18a1.48,1.48,0,0,0,1.23-.76L15,10.1Z"/>
  <path id="icon-app-engine-rocket" fill="#fff" d="M8,5.12A2.88,2.88,0,1,0,10.87,8h0A2.87,2.87,0,0,0,8,5.12m0,5.07A2.19,2.19,0,1,1,10.18,8,2.19,2.19,0,0,1,8,10.19H8m4.52-2.52-1.2-.38a3.51,3.51,0,0,1,.07.72,4.07,4.07,0,0,1,0,.5h1.16a.2.2,0,0,0,.18-.19V7.85a.21.21,0,0,0-.18-.19M8,4.6a3.27,3.27,0,0,1,.7.08l-.43-1.2a.21.21,0,0,0-.2-.18H7.89a.2.2,0,0,0-.19.18L7.32,4.67A3.82,3.82,0,0,1,8,4.61M4.61,8a3.51,3.51,0,0,1,.07-.72l-1.2.37a.22.22,0,0,0-.18.2v.46a.21.21,0,0,0,.18.19H4.64a4.19,4.19,0,0,1,0-.5M9,7.06l-.28.27h0A1,1,0,0,0,7.29,8.8L7,9.07a1.41,1.41,0,0,0,2,0,1.43,1.43,0,0,0,0-2m-.56,1.4a.67.67,0,0,1-.94,0,.66.66,0,0,1,0-.94.65.65,0,0,1,.93,0h0a.66.66,0,0,1,0,.93h0"/>
</svg>
