<svg xmlns="http://www.w3.org/2000/svg" viewBox="0 0 16 16">
  <path fill="#9cbf5f" d="M3.33,9.69A5.34,5.34,0,0,0,8,12.44l-3-6Z"/>
  <polygon fill="#517e4a" points="8 4.62 4.09 12.44 11.91 12.44 8 4.62"/>
  <path fill="#9cbf5f" d="M13.33,7.11A5.32,5.32,0,0,0,11.7,3.27l-4.55,9.1a5.33,5.33,0,0,0,6.19-5.26Z"/>
  <path fill="#000" d="M15.11,7.11a7.11,7.11,0,1,0-8.18,7v1.5a.36.36,0,0,0,.54.31l4.15-2.72h0A7.11,7.11,0,0,0,15.11,7.11ZM8,12.44a5.33,5.33,0,1,1,5.33-5.33A5.34,5.34,0,0,1,8,12.44Z"/>
</svg>
