<svg xmlns="http://www.w3.org/2000/svg" viewBox="0 0 16 16">
  <path fill="#172b4d" d="M12.37,9a.32.32,0,0,0-.32-.32.31.31,0,0,0-.21.08A5.86,5.86,0,0,1,8,10.1H8A6.1,6.1,0,0,1,4.16,8.73a.4.4,0,0,0-.22-.07A.32.32,0,0,0,3.63,9a.75.75,0,0,0,.18.38A5.16,5.16,0,0,0,8,11.32H8a5.16,5.16,0,0,0,4.17-1.93A.87.87,0,0,0,12.37,9Zm2.21,5.56a2.94,2.94,0,0,1-1.35-1.61.3.3,0,0,1,.11-.35A6.52,6.52,0,0,0,16,7.43c0-3.81-3.58-6.9-8-6.9S0,3.62,0,7.43s3.58,6.9,8,6.9a9.26,9.26,0,0,0,1.68-.15.45.45,0,0,1,.33.06,8.6,8.6,0,0,0,4.16,1.24.56.56,0,0,0,.64-.56A.43.43,0,0,0,14.58,14.53Zm-2.14-.67a.15.15,0,0,1,0,.09s0,.08-.1.08a6,6,0,0,1-2.29-1.21.43.43,0,0,0-.39-.06,8,8,0,0,1-1.7.18c-3.68,0-6.66-2.46-6.66-5.5s3-5.5,6.66-5.5,6.66,2.46,6.66,5.5A5.25,5.25,0,0,1,12,11.86a.44.44,0,0,0-.23.35A3.73,3.73,0,0,0,12.44,13.86Z"/>
</svg>
