<svg class="icon-invision" viewBox="0 0 16 16" xmlns="http://www.w3.org/2000/svg">
  <path d="M14.55,0H1.45A1.45,1.45,0,0,0,0,1.45v13.1A1.45,1.45,0,0,0,1.45,16h13.1A1.45,1.45,0,0,0,16,14.55V1.45A1.45,1.45,0,0,0,14.55,0ZM5.35,3.15a1,1,0,1,1-1,1A1,1,0,0,1,5.35,3.15Zm6.53,9.21A1.31,1.31,0,0,1,10.42,11a2.55,2.55,0,0,1,.1-.72L11,8.55A1.72,1.72,0,0,0,11.06,8a.8.8,0,0,0-.86-.88c-.68,0-1.12.47-1.35,1.41l-.92,3.67H6.32l.29-1.15a2.29,2.29,0,0,1-1.94,1.26,1.29,1.29,0,0,1-1.44-1.41,3.23,3.23,0,0,1,.09-.71l.73-3H2.92L3.26,6H6L4.92,10.24a2.69,2.69,0,0,0-.1.65c0,.27.13.35.34.4a1.79,1.79,0,0,0,1.7-1.22l.71-2.83H6.42L6.77,6H9.22L8.91,7.41A2.79,2.79,0,0,1,11,5.84,1.67,1.67,0,0,1,12.7,7.72a3.64,3.64,0,0,1-.16,1l-.46,1.65a1.91,1.91,0,0,0-.07.45c0,.29.11.43.33.43s.49-.16.8-1l.63.24C13.4,11.81,12.73,12.35,11.88,12.35Z" />
</svg>
