<svg xmlns="http://www.w3.org/2000/svg" viewBox="0 0 16 16">
  <path fill="#ecb32d" d="M10.37,1a1.43,1.43,0,0,0-2.72.88l3.69,11.34a1.42,1.42,0,0,0,1.73.88,1.4,1.4,0,0,0,1-1.76S10.37,1,10.37,1Z"/>
  <path fill="#63c1a0" d="M4.66,2.84a1.43,1.43,0,0,0-2.72.88L5.63,15.06a1.42,1.42,0,0,0,1.73.88,1.4,1.4,0,0,0,1-1.76S4.66,2.84,4.66,2.84Z"/>
  <path fill="#e01a59" d="M15,10.37a1.43,1.43,0,0,0-.88-2.72L2.79,11.36a1.42,1.42,0,0,0-.88,1.73,1.4,1.4,0,0,0,1.76,1Z"/>
  <path fill="#331433" d="M5.15,13.59l2.72-.88L7,10l-2.72.88Z"/>
  <path fill="#d62027" d="M10.87,11.73l2.72-.88-.88-2.72L10,9Z"/>
  <path fill="#89d3df" d="M13.15,4.67a1.43,1.43,0,0,0-.88-2.72L.94,5.64A1.42,1.42,0,0,0,.06,7.37a1.4,1.4,0,0,0,1.76,1Z"/>
  <path fill="#258b74" d="M3.3,7.87,6,7,5.13,4.27l-2.72.88Z"/>
  <path fill="#819c3c" d="M9,6l2.72-.88-.88-2.72L8.13,3.3Z"/>
</svg>
