<svg class="icon-slack" xmlns="http://www.w3.org/2000/svg" viewBox="0 0 16 16">
  <path d="M6.59,7.34l2.13-.71.69,2.06L7.28,9.4Zm0,0,2.13-.71.69,2.06L7.28,9.4ZM15.33,5.8C13.68.3,11.3-1,5.8.67S-1,4.7.67,10.2s4,6.78,9.53,5.13S17,11.3,15.33,5.8ZM12.55,9.37l-1,.35.36,1.07a.83.83,0,0,1-.52,1,.71.71,0,0,1-.28,0,.85.85,0,0,1-.77-.56l-.36-1.07L7.81,11,8.17,12a.83.83,0,0,1-.52,1,.71.71,0,0,1-.28,0,.85.85,0,0,1-.77-.56l-.36-1.07-1,.35a.71.71,0,0,1-.28,0,.85.85,0,0,1-.77-.56.83.83,0,0,1,.52-1l1-.35L5,7.85,4,8.19a.71.71,0,0,1-.28,0,.85.85,0,0,1-.77-.56.83.83,0,0,1,.52-1l1-.35L4.14,5.2a.83.83,0,1,1,1.57-.52l.36,1.07L8.2,5,7.85,4a.83.83,0,0,1,1.57-.52l.36,1.07,1-.35a.83.83,0,1,1,.52,1.57l-1,.35L11,8.14l1-.35a.83.83,0,0,1,.52,1.57Z"/>
</svg>
