<svg class="icon-webhook" xmlns="http://www.w3.org/2000/svg" viewBox="0 0 16 16">
  <path d="M7.37,12.45A3.72,3.72,0,1,1,2.52,8.18.74.74,0,1,1,3,9.59a2.23,2.23,0,1,0,3,2.11A.74.74,0,0,1,6.7,11H11a1.49,1.49,0,1,1,0,1.49ZM3.72,10.22A1.49,1.49,0,1,0,5,11L7.15,7.25h0a.74.74,0,0,0-.27-1,2.23,2.23,0,1,1,3.35-1.93s0,.08,0,.12a.74.74,0,1,0,1.49.08c0-.07,0-.13,0-.2A3.72,3.72,0,1,0,5.53,7.08L3.72,10.22ZM12.28,8a3.73,3.73,0,0,0-1.18.19L9.29,5A1.49,1.49,0,1,0,8,5.78H8L10.15,9.5h0a.74.74,0,0,0,1,.27A2.23,2.23,0,1,1,11,13.5a.74.74,0,0,0-.89,1.2A3.72,3.72,0,1,0,12.28,8Z"/>
</svg>
