<svg xmlns="http://www.w3.org/2000/svg" viewBox="0 0 16 16">
  <path fill="#788594" d="M7.37,12.45A3.72,3.72,0,1,1,2.52,8.18.74.74,0,0,1,3,9.59,2.23,2.23,0,1,0,6,11.7a.74.74,0,0,1,.7-.7H11a1.49,1.49,0,1,1,0,1.49ZM12.28,8a3.73,3.73,0,0,0-1.18.19L9.29,5A1.49,1.49,0,1,0,8,5.78H8L10.15,9.5h0a.74.74,0,0,0,1,.27A2.23,2.23,0,1,1,11,13.5a.75.75,0,1,0-.89,1.2A3.72,3.72,0,1,0,12.28,8Z"/>
  <path fill="#f9657a" d="M3.72,10.22A1.49,1.49,0,1,0,5,11L7.15,7.25h0a.74.74,0,0,0-.27-1,2.23,2.23,0,1,1,3.35-1.93v.12a.75.75,0,1,0,1.49.08v-.2A3.72,3.72,0,1,0,5.53,7.08Z"/>
</svg>
