<svg xmlns="http://www.w3.org/2000/svg" xmlns:xlink="http://www.w3.org/1999/xlink"><g id="arrow-down" viewBox="0 0 10 6"><polyline vector-effect="non-scaling-stroke" points="1 1 5 5 9 1" /></g><g id="arrow-left" viewBox="0 0 6 10"><polyline vector-effect="non-scaling-stroke" points="5 1 1 5 5 9" /></g><g id="arrow-right" viewBox="0 0 6 10"><polyline vector-effect="non-scaling-stroke" points="1 1 5 5 1 9" /></g><g id="arrow-up" viewBox="0 0 10 6"><polyline vector-effect="non-scaling-stroke" points="9 9 5 5 1 9" /></g><g id="card" viewBox="0 0 16 14"><path d="M14,0H2A2,2,0,0,0,0,2V12a2,2,0,0,0,2,2H14a2,2,0,0,0,2-2V2A2,2,0,0,0,14,0Zm0,12H2V5H14Zm0-9H2V2H14ZM3,10.5a.5.5,0,0,1,.5-.5h1a.5.5,0,0,1,.5.5.5.5,0,0,1-.5.5h-1A.5.5,0,0,1,3,10.5Zm3,0a.5.5,0,0,1,.5-.5h3a.5.5,0,0,1,.5.5.5.5,0,0,1-.5.5h-3A.5.5,0,0,1,6,10.5Z"/></g><g id="check" viewBox="0 0 8 8"><polyline vector-effect="non-scaling-stroke" points="0 4 3 7 8 0" /></g><g id="gear" viewBox="0 0 8 8"><path vector-effect="non-scaling-stroke" d="M7,4A3,3,0,1,1,4,1,3,3,0,0,1,7,4ZM4,0V1M4,7V8M0,4H1M7,4H8M1.17,1.17l.71.71M6.12,6.12l.71.71m-5.66,0,.71-.71M6.12,1.88l.71-.71"/></g><g id="lock" viewBox="0 0 12 14"><path d="M10,5V4A4,4,0,0,0,2,4V5A2,2,0,0,0,0,7v5a2,2,0,0,0,2,2h8a2,2,0,0,0,2-2V7A2,2,0,0,0,10,5ZM7,10.05a1,1,0,0,1-.95.95h-.1A1,1,0,0,1,5,10.05V8.95A1,1,0,0,1,5.95,8h.1A1,1,0,0,1,7,8.95ZM8,5H4V4A2,2,0,0,1,8,4Z"/></g><g id="bitbucket-color" viewBox="0 0 16 16"><defs><linearGradient id="bitbucket-color-gradient" x1="16.42" y1="9.04" x2="8.46" y2="2.83" gradientTransform="matrix(1, 0, 0, -1, 0, 16)" gradientUnits="userSpaceOnUse"><stop offset="0.18" stop-color="#0052cc" /><stop offset="1" stop-color="#2684ff" /></linearGradient></defs><path class="icon-bitbucket-color" fill="#2684ff" d="M.52.81a.51.51,0,0,0-.52.5A.28.28,0,0,0,0,1.4L2.18,14.61a.69.69,0,0,0,.68.58H13.3a.51.51,0,0,0,.52-.43L16,1.4a.5.5,0,0,0-.42-.58H.52Zm9.16,9.54H6.35l-.9-4.71h5Z" /><path class="icon-bitbucket-color-gradient" fill="url(#bitbucket-color-gradient)" d="M15.3,5.64H10.49l-.81,4.71H6.35L2.42,15a.66.66,0,0,0,.44.17H13.31a.51.51,0,0,0,.51-.43Z"/></g><g id="bitbucket-white" viewBox="0 0 16 16"><defs><linearGradient id="bitbucket-white-gradient" x1="16.36" y1="6.99" x2="3.79" y2="16.81" gradientUnits="userSpaceOnUse"><stop offset="0" stop-color="#fff" stop-opacity="0.3" /><stop offset="0.6" stop-color="#fff" /></linearGradient></defs><path class="icon-bitbucket-white" fill="#fff" d="M6.35,10.35l-.9-4.71h9.86L16,1.4a.51.51,0,0,0-.41-.58H.52a.51.51,0,0,0-.52.5H0V1.4L2.18,14.61a.7.7,0,0,0,.23.41Z" /><path class="icon-bitbucket-white-gradient" fill="url(#bitbucket-white-gradient)" d="M9.68,10.35H6.35L2.18,14.61a.7.7,0,0,0,.23.41h0a.8.8,0,0,0,.27.15l.18,0H13.3a.51.51,0,0,0,.52-.43l1.49-9.12H10.45Z" /></g><g id="bitbucket" viewBox="0 0 16 16"><defs><linearGradient id="bitbucket-gradient" x1="16.42" y1="9.04" x2="8.46" y2="2.83" gradientTransform="matrix(1, 0, 0, -1, 0, 16)" gradientUnits="userSpaceOnUse"><stop offset="0.18" stop-color="rgba(0,0,0,.35)" /><stop offset="1" stop-color="rgba(0,0,0,0)" /></linearGradient></defs><path class="icon-bitbucket" d="M.52.81a.51.51,0,0,0-.52.5A.28.28,0,0,0,0,1.4L2.18,14.61a.69.69,0,0,0,.68.58H13.3a.51.51,0,0,0,.52-.43L16,1.4a.5.5,0,0,0-.42-.58H.52Zm9.16,9.54H6.35l-.9-4.71h5Z" /><path class="icon-bitbucket-gradient" fill="url(#bitbucket-gradient)" d="M15.3,5.64H10.49l-.81,4.71H6.35L2.42,15a.66.66,0,0,0,.44.17H13.31a.51.51,0,0,0,.51-.43Z"/></g><g id="campfire-color" viewBox="0 0 16 16"><path fill="#99d9e8" d="M8,1.33C3.69,1.33.32,6.81,0,11.44c1.35,2.35,4.61,3.23,8,3.23s6.65-.88,8-3.23C15.68,6.81,12.31,1.33,8,1.33Z"/><path fill="#70bf54" d="M14.75,11.16c0,1.38-3.1,2.68-6.93,2.78C4,13.84.87,12.53.88,11.16S3.87,7,7.82,6.95,14.75,9.81,14.75,11.16Z"/><ellipse fill="#695114" opacity="0.64" cx="7.82" cy="10.81" rx="2.96" ry="1.39"/><path fill="#ff7f00" d="M7.38,4.73c.25,1-.79,1.43-1.34,2.17-.94,1.18-1.59,3.6,0,4.58l.19.1a4.11,4.11,0,0,0,3.2-.14,1.45,1.45,0,0,0,.88-.94c.12-.65-.67-.89-.63-1.54A1.53,1.53,0,0,1,10,8.21c.22-.37.32-1.12-.29-1.18,0,.26-.4,1.05-.78.73-.23-.19,0-.61.08-.83A2.55,2.55,0,0,0,7.23,3.83"/><path fill="#ff0" d="M8.74,9.93a1.48,1.48,0,0,1,0,.53,1.18,1.18,0,0,1-.18.47,1,1,0,0,1-.17.2l-.1.07-.12,0-.22,0H7.66a1.07,1.07,0,0,1-.46-.15,1.67,1.67,0,0,1-.41-.3,1.57,1.57,0,0,1-.27-1.89c.28-.55.84-.95,1.13-1.49a1,1,0,0,0,.11-.31.75.75,0,0,0,0-.39l.12.06a.27.27,0,0,1,.08.1.46.46,0,0,1,0,.26.87.87,0,0,1-.08.27c-.06.11-.07.23-.12.35A1.88,1.88,0,0,1,7.6,8a.92.92,0,0,0-.15.31,2.33,2.33,0,0,0-.07.46,1.2,1.2,0,0,0,.22.57.43.43,0,0,0,.54.23,1.4,1.4,0,0,0,.7-.74A1.17,1.17,0,0,0,8.74,9.93Z"/><path fill="#fff" opacity="0.75" d="M7.61,10.83a.51.51,0,0,1-.46-.35,1.42,1.42,0,0,1-.07-.7c0-.07.06-.14.08-.22s0-.21.08-.27,0,.21,0,.22,0,.1,0,.13.06,0,.09,0,.14.29.2.41c.18.34.46.46.77.15a.93.93,0,0,1-.5.47"/><path fill="#695114" opacity="0.15" d="M14,9.74c-.79-.26-1.3,2-2.64,2.85a15.94,15.94,0,0,1-3.83,1.29,13,13,0,0,0,5.5-1c1.17-.48,2.54-1.54,1-3.11"/><path fill="#695114" opacity="0.15" d="M2,12.42C.68,11.58,3.36,8.8,3.84,8.05A6.34,6.34,0,0,0,1.42,10c-.66,1-.88,1.72.43,2.51"/></g><g id="codeship" viewBox="0 0 180 30"><circle class="icon-codeship-outline" vector-effect="non-scaling-stroke" r="14" cx="15" cy="15" /><path class="icon-codeship-waves" d="M12.8,6.65V4.23c0-.35,1.37-.74,2.3-.74s2.35.39,2.35.74V6.64a13.16,13.16,0,0,0-2.32-.25A12.73,12.73,0,0,0,12.8,6.65Zm-5.32,14c1,.11,4.84,1.74,8.54-.38l-.91-.12a13.48,13.48,0,0,1-3.54-2S8,14.45,3.74,18.3a11.87,11.87,0,0,0,.51,1.44C5.24,19.33,6.4,20.55,7.47,20.66Z"/><path class="icon-codeship-ship" d="M4.25,19.75l0,0h0Zm15.83-8.58V8.65c0-.35-3-1.15-5-1.15s-4.86.8-4.86,1.15v2.49a17.94,17.94,0,0,1,4.82-2.37A17.54,17.54,0,0,1,20.08,11.17Zm1.21,5c-.74.14-1.61,1.21-2.74,2.29a11.58,11.58,0,0,1,2.71-4.91c-.39-.36-.79-.68-1.19-1h0A16,16,0,0,0,15.14,10h0a12.33,12.33,0,0,0-2.12.85A16.51,16.51,0,0,0,9,13.5H9A10.81,10.81,0,0,1,11.54,18l0,.1.37.33a7.38,7.38,0,0,0,3.14,1.69v0l-.47-3.79-.12-2.55.64-2.92.59,2.92-.14,2.56-.42,3.8v0l.86.1a6.86,6.86,0,0,1-5.82-.09,8.5,8.5,0,0,0-2.81-1,6.57,6.57,0,0,0-3.15.51h0l0,0a12,12,0,0,0,11.22,7.1,12,12,0,0,0,10.68-7.54q.14-.36.26-.72C24.81,17.43,22.27,15.94,21.29,16.13Zm0,0Z"/><path class="icon-codeship-text" d="M49.21,22.21a7.21,7.21,0,0,1,0-14.42,6.9,6.9,0,0,1,5.11,1.82,1,1,0,0,1,0,1.44,1,1,0,0,1-1.48,0,4.83,4.83,0,0,0-3.63-1.24,5.15,5.15,0,0,0,0,10.3A4.9,4.9,0,0,0,52.88,19a1,1,0,0,1,1.44,1.44A6.91,6.91,0,0,1,49.21,22.21ZM66.81,7.79A7.21,7.21,0,1,1,59.59,15,7.19,7.19,0,0,1,66.81,7.79Zm0,12.36A5.15,5.15,0,1,0,61.65,15,5.15,5.15,0,0,0,66.81,20.15ZM86.17,8a7,7,0,1,1,0,14H81.64a1,1,0,0,1-1-1V9a1,1,0,0,1,1-1Zm-3.5,2V20h3.5a5,5,0,1,0,0-10.05ZM110.9,20a1,1,0,1,1,0,2H101a1,1,0,0,1-1-1V9a1,1,0,0,1,1-1h9.89a1,1,0,1,1,0,2H102v3.87h6.8a1,1,0,1,1,0,2H102V20Zm36.55-4.41H138v5.44a1,1,0,1,1-2.06,0V8.94a1,1,0,0,1,2.06,0v4.7h9.48V8.94a1,1,0,0,1,2.06,0V21.06a1,1,0,1,1-2.06,0Zm12.36,5.44a1,1,0,1,1-2.06,0V8.94a1,1,0,0,1,2.06,0ZM175.51,8a4.49,4.49,0,0,1,0,9h-5.4V21.1a1,1,0,0,1-1,1,1,1,0,0,1-1-1V9a1,1,0,0,1,1-1Zm-5.4,2v5h5.4a2.51,2.51,0,0,0,0-5Zm-46.75,12.6-.51,0a6,6,0,0,1-3.69-1.46.83.83,0,0,1-.24-.66.78.78,0,0,1,.37-.55,1.24,1.24,0,0,1,.67-.19,1.09,1.09,0,0,1,.8.31,3.81,3.81,0,0,0,2.25.85h.34c1.78,0,3-.88,3.13-2.23s-1.42-2.19-3.22-3c-2.06-.92-4.4-2-4.17-4.51.19-2.12,2-3.38,4.78-3.38l.57,0a5.52,5.52,0,0,1,3.43,1.35.74.74,0,0,1-.08,1.2,1.38,1.38,0,0,1-.72.2,1.06,1.06,0,0,1-.79-.31,3.39,3.39,0,0,0-2-.77H124c-1.64,0-2.66.64-2.74,1.7-.15,1.59,1.42,2.29,3.24,3.11,2,.92,4.37,2,4.13,4.53C128.42,21,126.31,22.57,123.36,22.57Z"/></g><g id="email-color" viewBox="0 0 16 16"><path fill="#e06158" d="M13,10.2l0,0c-.48.18-1.06-.06-1.63-.62V5.37a1,1,0,0,0-.65-.94c-2-.75-3.84-.69-5.09.18A4,4,0,0,0,4,8a3.89,3.89,0,0,0,2.17,3.66A3.82,3.82,0,0,0,7.8,12a4.79,4.79,0,0,0,2.43-.71,3.62,3.62,0,0,0,2.77.94ZM9.33,9.52A2.38,2.38,0,0,1,7,9.85,1.92,1.92,0,0,1,6,8a2.05,2.05,0,0,1,.75-1.75A2.28,2.28,0,0,1,8,5.91a5,5,0,0,1,1.29.19Z"/><path fill="#ff9f49" d="M12.22,3.76m1.44-1.41-1.43,1.4A6,6,0,0,1,14,8a2.3,2.3,0,0,1-1,2.2v2.05a2.93,2.93,0,0,0,.65-.16C15.1,11.56,16,10,16,8A8,8,0,0,0,13.65,2.35Z"/><path fill="#ffca49" d="M3.76,3.76,2.35,2.35a8,8,0,0,1,11.31,0l-1.43,1.4a6,6,0,0,0-8.47,0Z"/><path fill="#3acc7c" d="M2,8A6,6,0,0,1,3.76,3.76L2.35,2.35a8,8,0,0,0,0,11.31l1.41-1.41A6,6,0,0,1,2,8Z"/><path fill="#1ca1e3" d="M2.35,13.65a8,8,0,0,0,9.41,1.41,1,1,0,0,0-.94-1.77,6,6,0,0,1-7.05-1.06Z"/></g><g id="flowdock-color" viewBox="0 0 16 16"><path fill="#49495f" d="M9.6,4a1,1,0,0,1,1.05-.87,1.79,1.79,0,0,1,1.15.32.14.14,0,0,0,.19,0l1.16-1.36a.14.14,0,0,0,0-.2A5.43,5.43,0,0,0,10,.46,3.41,3.41,0,0,0,6.6,3.86h0v12a8,8,0,0,0,2.89,0,.14.14,0,0,0,.11-.14v-8a.14.14,0,0,1,.14-.14h2.12A.14.14,0,0,0,12,7.46V5.14A.14.14,0,0,0,11.86,5H9.74a.14.14,0,0,1-.14-.14Z"/><path fill="#1ba3fb" d="M.52,10.84a42.81,42.81,0,0,0,5.88.56v4.44A8,8,0,0,1,.52,10.84Z"/><path fill="#77fcff" d="M.16,9.6A15.71,15.71,0,0,1,6.4,8v3.4a42.81,42.81,0,0,1-5.88-.56A7.94,7.94,0,0,1,.16,9.6Z"/><path fill="#dff974" d="M0,8A8,8,0,0,0,.16,9.6,15.71,15.71,0,0,1,6.4,8V5A28.29,28.29,0,0,1,1.07,4,8,8,0,0,0,0,8Z"/><path fill="#fa4588" d="M6.4,3.84A3.56,3.56,0,0,1,10,.27h.12A8,8,0,0,0,1.07,4,28.27,28.27,0,0,0,6.4,5Z"/></g><g id="github" viewBox="0 0 16 16"><path d="M8,0A8.1,8.1,0,0,0,0,8.2,8.19,8.19,0,0,0,5.47,16c.4.08.55-.18.55-.4s0-.71,0-1.4c-2.23.5-2.69-1.1-2.69-1.1a2.16,2.16,0,0,0-.89-1.2c-.73-.51.05-.5.05-.5a1.69,1.69,0,0,1,1.23.85A1.68,1.68,0,0,0,6,12.92a1.77,1.77,0,0,1,.51-1.1c-1.78-.21-3.64-.91-3.64-4.05a3.22,3.22,0,0,1,.82-2.2A3,3,0,0,1,3.8,3.4s.67-.22,2.2.84a7.4,7.4,0,0,1,4,0c1.53-1.06,2.2-.84,2.2-.84a3,3,0,0,1,.08,2.17,3.21,3.21,0,0,1,.82,2.2c0,3.15-1.87,3.84-3.65,4A2,2,0,0,1,10,13.34c0,1.1,0,2,0,2.25s.14.47.55.39A8.19,8.19,0,0,0,16,8.2,8.1,8.1,0,0,0,8,0Z" /></g><g id="gitlab-color" viewBox="0 0 16 16"><path class="icon-gitlab-head" fill="#fc6d26" d="M16,9.06l-.9-2.76L13.3.84a.31.31,0,0,0-.58,0L11,6.3H5.05L3.28.84a.31.31,0,0,0-.58,0L.93,6.3,0,9.06a.62.62,0,0,0,.22.68L8,15.37l7.75-5.63A.62.62,0,0,0,16,9.06"/><path class="icon-gitlab-scruff" fill="#fca326" d="M.93,6.3h0L0,9.06a.62.62,0,0,0,.22.68L8,15.37.93,6.3Zm14.14,0h0L16,9.06a.62.62,0,0,1-.22.68L8,15.37,15.07,6.3Z"/><path class="icon-gitlab-ears-nose" fill="#e24329" d="M8,15.37H8L11,6.3H5.05l3,9.07ZM.93,6.3H5.05L3.28.84a.31.31,0,0,0-.58,0L.93,6.3Zm14.14,0H11L12.72.84a.31.31,0,0,1,.58,0L15.07,6.3Z"/></g><g id="gitlab" viewBox="0 0 16 16"><path d="M.91,6.28,8,15.47.26,9.76a.58.58,0,0,1-.21-.69L.91,6.28h0L2.67.73a.32.32,0,0,1,.59,0L5,6.28ZM16,9.06l-.91-2.78h0L13.3.73a.32.32,0,0,0-.59,0L10.95,6.28H5.07L8,15.47l2.94-9.19h4.11L8,15.47H8l7.74-5.71A.58.58,0,0,0,16,9.06Z" /></g><g id="google-app-engine" viewBox="0 0 16 16"><path id="icon-app-engine-hexagon" fill="#4285f4" d="M15.81,7.26,12.52,1.55A1.44,1.44,0,0,0,11.29.81H4.71a1.44,1.44,0,0,0-1.23.74L.19,7.25a1.46,1.46,0,0,0,0,1.43l3.29,5.75a1.47,1.47,0,0,0,1.23.76h6.58a1.48,1.48,0,0,0,1.23-.76l3.29-5.72A1.5,1.5,0,0,0,15.81,7.26Z"/><path id="icon-app-engine-shadow" fill="#4c7adc" d="M12.66,7.75l-.09,0L8.21,3.36l-.9,1.31.75.75-1.9.69L5.41,8l-.74-.73L3.36,8.44l6.75,6.75h1.18a1.48,1.48,0,0,0,1.23-.76L15,10.1Z"/><path id="icon-app-engine-rocket" fill="#fff" d="M8,5.12A2.88,2.88,0,1,0,10.87,8h0A2.87,2.87,0,0,0,8,5.12m0,5.07A2.19,2.19,0,1,1,10.18,8,2.19,2.19,0,0,1,8,10.19H8m4.52-2.52-1.2-.38a3.51,3.51,0,0,1,.07.72,4.07,4.07,0,0,1,0,.5h1.16a.2.2,0,0,0,.18-.19V7.85a.21.21,0,0,0-.18-.19M8,4.6a3.27,3.27,0,0,1,.7.08l-.43-1.2a.21.21,0,0,0-.2-.18H7.89a.2.2,0,0,0-.19.18L7.32,4.67A3.82,3.82,0,0,1,8,4.61M4.61,8a3.51,3.51,0,0,1,.07-.72l-1.2.37a.22.22,0,0,0-.18.2v.46a.21.21,0,0,0,.18.19H4.64a4.19,4.19,0,0,1,0-.5M9,7.06l-.28.27h0A1,1,0,0,0,7.29,8.8L7,9.07a1.41,1.41,0,0,0,2,0,1.43,1.43,0,0,0,0-2m-.56,1.4a.67.67,0,0,1-.94,0,.66.66,0,0,1,0-.94.65.65,0,0,1,.93,0h0a.66.66,0,0,1,0,.93h0"/></g><g id="grove-color" viewBox="0 0 16 16"><path fill="#9cbf5f" d="M3.33,9.69A5.34,5.34,0,0,0,8,12.44l-3-6Z"/><polygon fill="#517e4a" points="8 4.62 4.09 12.44 11.91 12.44 8 4.62"/><path fill="#9cbf5f" d="M13.33,7.11A5.32,5.32,0,0,0,11.7,3.27l-4.55,9.1a5.33,5.33,0,0,0,6.19-5.26Z"/><path fill="#000" d="M15.11,7.11a7.11,7.11,0,1,0-8.18,7v1.5a.36.36,0,0,0,.54.31l4.15-2.72h0A7.11,7.11,0,0,0,15.11,7.11ZM8,12.44a5.33,5.33,0,1,1,5.33-5.33A5.34,5.34,0,0,1,8,12.44Z"/></g><g id="hipchat-color" viewBox="0 0 16 16"><path fill="#172b4d" d="M12.37,9a.32.32,0,0,0-.32-.32.31.31,0,0,0-.21.08A5.86,5.86,0,0,1,8,10.1H8A6.1,6.1,0,0,1,4.16,8.73a.4.4,0,0,0-.22-.07A.32.32,0,0,0,3.63,9a.75.75,0,0,0,.18.38A5.16,5.16,0,0,0,8,11.32H8a5.16,5.16,0,0,0,4.17-1.93A.87.87,0,0,0,12.37,9Zm2.21,5.56a2.94,2.94,0,0,1-1.35-1.61.3.3,0,0,1,.11-.35A6.52,6.52,0,0,0,16,7.43c0-3.81-3.58-6.9-8-6.9S0,3.62,0,7.43s3.58,6.9,8,6.9a9.26,9.26,0,0,0,1.68-.15.45.45,0,0,1,.33.06,8.6,8.6,0,0,0,4.16,1.24.56.56,0,0,0,.64-.56A.43.43,0,0,0,14.58,14.53Zm-2.14-.67a.15.15,0,0,1,0,.09s0,.08-.1.08a6,6,0,0,1-2.29-1.21.43.43,0,0,0-.39-.06,8,8,0,0,1-1.7.18c-3.68,0-6.66-2.46-6.66-5.5s3-5.5,6.66-5.5,6.66,2.46,6.66,5.5A5.25,5.25,0,0,1,12,11.86a.44.44,0,0,0-.23.35A3.73,3.73,0,0,0,12.44,13.86Z"/></g><g id="hipchat" viewBox="0 0 16 16"><path d="M12.37,9a.32.32,0,0,0-.32-.32.31.31,0,0,0-.21.08A5.86,5.86,0,0,1,8,10.1H8A6.1,6.1,0,0,1,4.16,8.73a.4.4,0,0,0-.22-.07A.32.32,0,0,0,3.63,9a.75.75,0,0,0,.18.38A5.16,5.16,0,0,0,8,11.32H8a5.16,5.16,0,0,0,4.17-1.93A.87.87,0,0,0,12.37,9Zm2.21,5.56a2.94,2.94,0,0,1-1.35-1.61.3.3,0,0,1,.11-.35A6.52,6.52,0,0,0,16,7.43c0-3.81-3.58-6.9-8-6.9S0,3.62,0,7.43s3.58,6.9,8,6.9a9.26,9.26,0,0,0,1.68-.15.45.45,0,0,1,.33.06,8.6,8.6,0,0,0,4.16,1.24.56.56,0,0,0,.64-.56A.43.43,0,0,0,14.58,14.53Zm-2.14-.67a.15.15,0,0,1,0,.09s0,.08-.1.08a6,6,0,0,1-2.29-1.21.43.43,0,0,0-.39-.06,8,8,0,0,1-1.7.18c-3.68,0-6.66-2.46-6.66-5.5s3-5.5,6.66-5.5,6.66,2.46,6.66,5.5A5.25,5.25,0,0,1,12,11.86a.44.44,0,0,0-.23.35A3.73,3.73,0,0,0,12.44,13.86Z"/></g><g id="invision" viewBox="0 0 16 16"><path d="M14.55,0H1.45A1.45,1.45,0,0,0,0,1.45v13.1A1.45,1.45,0,0,0,1.45,16h13.1A1.45,1.45,0,0,0,16,14.55V1.45A1.45,1.45,0,0,0,14.55,0ZM5.35,3.15a1,1,0,1,1-1,1A1,1,0,0,1,5.35,3.15Zm6.53,9.21A1.31,1.31,0,0,1,10.42,11a2.55,2.55,0,0,1,.1-.72L11,8.55A1.72,1.72,0,0,0,11.06,8a.8.8,0,0,0-.86-.88c-.68,0-1.12.47-1.35,1.41l-.92,3.67H6.32l.29-1.15a2.29,2.29,0,0,1-1.94,1.26,1.29,1.29,0,0,1-1.44-1.41,3.23,3.23,0,0,1,.09-.71l.73-3H2.92L3.26,6H6L4.92,10.24a2.69,2.69,0,0,0-.1.65c0,.27.13.35.34.4a1.79,1.79,0,0,0,1.7-1.22l.71-2.83H6.42L6.77,6H9.22L8.91,7.41A2.79,2.79,0,0,1,11,5.84,1.67,1.67,0,0,1,12.7,7.72a3.64,3.64,0,0,1-.16,1l-.46,1.65a1.91,1.91,0,0,0-.07.45c0,.29.11.43.33.43s.49-.16.8-1l.63.24C13.4,11.81,12.73,12.35,11.88,12.35Z" /></g><g id="slack-color" viewBox="0 0 16 16"><path fill="#ecb32d" d="M10.37,1a1.43,1.43,0,0,0-2.72.88l3.69,11.34a1.42,1.42,0,0,0,1.73.88,1.4,1.4,0,0,0,1-1.76S10.37,1,10.37,1Z"/><path fill="#63c1a0" d="M4.66,2.84a1.43,1.43,0,0,0-2.72.88L5.63,15.06a1.42,1.42,0,0,0,1.73.88,1.4,1.4,0,0,0,1-1.76S4.66,2.84,4.66,2.84Z"/><path fill="#e01a59" d="M15,10.37a1.43,1.43,0,0,0-.88-2.72L2.79,11.36a1.42,1.42,0,0,0-.88,1.73,1.4,1.4,0,0,0,1.76,1Z"/><path fill="#331433" d="M5.15,13.59l2.72-.88L7,10l-2.72.88Z"/><path fill="#d62027" d="M10.87,11.73l2.72-.88-.88-2.72L10,9Z"/><path fill="#89d3df" d="M13.15,4.67a1.43,1.43,0,0,0-.88-2.72L.94,5.64A1.42,1.42,0,0,0,.06,7.37a1.4,1.4,0,0,0,1.76,1Z"/><path fill="#258b74" d="M3.3,7.87,6,7,5.13,4.27l-2.72.88Z"/><path fill="#819c3c" d="M9,6l2.72-.88-.88-2.72L8.13,3.3Z"/></g><g id="slack" viewBox="0 0 16 16"><path d="M6.59,7.34l2.13-.71.69,2.06L7.28,9.4Zm0,0,2.13-.71.69,2.06L7.28,9.4ZM15.33,5.8C13.68.3,11.3-1,5.8.67S-1,4.7.67,10.2s4,6.78,9.53,5.13S17,11.3,15.33,5.8ZM12.55,9.37l-1,.35.36,1.07a.83.83,0,0,1-.52,1,.71.71,0,0,1-.28,0,.85.85,0,0,1-.77-.56l-.36-1.07L7.81,11,8.17,12a.83.83,0,0,1-.52,1,.71.71,0,0,1-.28,0,.85.85,0,0,1-.77-.56l-.36-1.07-1,.35a.71.71,0,0,1-.28,0,.85.85,0,0,1-.77-.56.83.83,0,0,1,.52-1l1-.35L5,7.85,4,8.19a.71.71,0,0,1-.28,0,.85.85,0,0,1-.77-.56.83.83,0,0,1,.52-1l1-.35L4.14,5.2a.83.83,0,1,1,1.57-.52l.36,1.07L8.2,5,7.85,4a.83.83,0,0,1,1.57-.52l.36,1.07,1-.35a.83.83,0,1,1,.52,1.57l-1,.35L11,8.14l1-.35a.83.83,0,0,1,.52,1.57Z"/></g><g id="webhook-color" viewBox="0 0 16 16"><path fill="#788594" d="M7.37,12.45A3.72,3.72,0,1,1,2.52,8.18.74.74,0,0,1,3,9.59,2.23,2.23,0,1,0,6,11.7a.74.74,0,0,1,.7-.7H11a1.49,1.49,0,1,1,0,1.49ZM12.28,8a3.73,3.73,0,0,0-1.18.19L9.29,5A1.49,1.49,0,1,0,8,5.78H8L10.15,9.5h0a.74.74,0,0,0,1,.27A2.23,2.23,0,1,1,11,13.5a.75.75,0,1,0-.89,1.2A3.72,3.72,0,1,0,12.28,8Z"/><path fill="#f9657a" d="M3.72,10.22A1.49,1.49,0,1,0,5,11L7.15,7.25h0a.74.74,0,0,0-.27-1,2.23,2.23,0,1,1,3.35-1.93v.12a.75.75,0,1,0,1.49.08v-.2A3.72,3.72,0,1,0,5.53,7.08Z"/></g><g id="webhook" viewBox="0 0 16 16"><path d="M7.37,12.45A3.72,3.72,0,1,1,2.52,8.18.74.74,0,1,1,3,9.59a2.23,2.23,0,1,0,3,2.11A.74.74,0,0,1,6.7,11H11a1.49,1.49,0,1,1,0,1.49ZM3.72,10.22A1.49,1.49,0,1,0,5,11L7.15,7.25h0a.74.74,0,0,0-.27-1,2.23,2.23,0,1,1,3.35-1.93s0,.08,0,.12a.74.74,0,1,0,1.49.08c0-.07,0-.13,0-.2A3.72,3.72,0,1,0,5.53,7.08L3.72,10.22ZM12.28,8a3.73,3.73,0,0,0-1.18.19L9.29,5A1.49,1.49,0,1,0,8,5.78H8L10.15,9.5h0a.74.74,0,0,0,1,.27A2.23,2.23,0,1,1,11,13.5a.74.74,0,0,0-.89,1.2A3.72,3.72,0,1,0,12.28,8Z"/></g><g id="plus" viewBox="0 0 6 6"><path vector-effect="non-scaling-stroke" d="M3,1V5M1,3H5"/></g><g id="restart" viewBox="0 0 22 22"><path vector-effect="non-scaling-stroke" d="M20.17,15a10,10,0,1,1,0-8M15.81,7h5V2"/></g><g id="error-xs" viewBox="0 0 4 4"><polyline vector-effect="non-scaling-stroke" points="0 4 2 0 4 4 0 4"/></g><g id="error" viewBox="0 0 2 6"><line vector-effect="non-scaling-stroke" x1="1" x2="1" y2="3.1" /><line vector-effect="non-scaling-stroke" x1="1" x2="1" y1="6" y2="6" /></g><g id="fail" viewBox="0 0 8 8"><line vector-effect="non-scaling-stroke" x2="8" y2="8"/><line vector-effect="non-scaling-stroke" y1="8" x2="8"/></g><g id="paused" viewBox="0 0 4 4"><line vector-effect="non-scaling-stroke" x1="4" x2="4" y2="4" /><line vector-effect="non-scaling-stroke" x1="0" x2="0" y2="4" /></g><g id="running" viewBox="0 0 8 8"><path vector-effect="non-scaling-stroke" d="M4,0A4,4,0,0,1,8,4"/></g><g id="skipped" viewBox="0 0 4 8"><polyline vector-effect="non-scaling-stroke" points="0 8 4 4 0 0"/></g><g id="success" viewBox="0 0 8 8"><polyline vector-effect="non-scaling-stroke" points="0 4 3 7 8 0" /></g><g id="waiting" viewBox="0 0 12 2"><circle class="icon-waiting-dot-1" vector-effect="non-scaling-stroke" r="1" cx="0" cy="1" /><circle class="icon-waiting-dot-2" vector-effect="non-scaling-stroke" r="1" cx="6" cy="1" /><circle class="icon-waiting-dot-3" vector-effect="non-scaling-stroke" r="1" cx="12" cy="1" /></g><g id="tag" viewBox="0 0 14 14"><path d="M13.41,5.59l-5-5A2,2,0,0,0,7,0H2A2,2,0,0,0,0,2V7A2,2,0,0,0,.59,8.41l5,5a2,2,0,0,0,2.83,0l5-5A2,2,0,0,0,13.41,5.59ZM4,6A2,2,0,1,1,6,4,2,2,0,0,1,4,6Z"/></g><g id="x" viewBox="0 0 6 6"><polyline vector-effect="non-scaling-stroke" points="0,0 6,6" /><polyline vector-effect="non-scaling-stroke" points="0,6 6,0" /></g></svg>